PathFileType	4	(X/Y/Z)	C:/Users/beibeiliu/ov580/test_trc\sequence.15_training_dense_left.trc
DataRate	CameraRate	NumFrames	NumMarkers	Units	OrigDataRate	OrigDataStartFrame	OrigNumFrames
120	120	14	19	mm	120	131	348
Frame#	Time	ThumbCMC			ThumbMCP			ThumbIP			ThumbTip			IndexMCP			IndexPIP			IndexTip			MiddleMCP			MiddlePIP			MiddleTip			RingMCP			RingPIP			RingTip			PinkyMCP			PinkyPIP			PinkyTip			BackHand1			BackHand2			BackHand3	
		X0	Y0	Z0	X1	Y1	Z1	X2	Y2	Z2	X3	Y3	Z3	X4	Y4	Z4	X5	Y5	Z5	X6	Y6	Z6	X7	Y7	Z7	X8	Y8	Z8	X9	Y9	Z9	X10	Y10	Z10	X11	Y11	Z11	X12	Y12	Z12	X13	Y13	Z13	X14	Y14	Z14	X15	Y15	Z15	X16	Y16	Z16	X17	Y17	Z17	X18	Y18	Z18	
130	1.08333	-161.869	49.1224	-23.4473	-160.442	61.3792	-55.2478	-170.864	71.4261	-75.0549	-184.622	77.2676	-91.5417	-186.919	103.882	-32.211	-196.371	124.188	-46.7853	-201.144	140.869	-63.4607	-203.974	98.3385	-52.0066	-197.009	93.4485	-79.7251	-183.743	65.5777	-72.0162	-220.724	83.2734	-53.1982	-203.599	80.2617	-78.6506	-190.9	56.3076	-69.2249	-233.166	68.8999	-39.3265	-240.257	84.1602	-45.575	-249.396	101.409	-54.5095	-216.032	56.8521	-14.5768	-206.64	33.3396	-1.76553	-186.662	54.045	-0.81038	
131	1.09167	-163.801	41.1274	-21.9929	-161.885	54.8537	-52.3725	-167.372	67.3569	-71.0425	-183.166	76.4773	-87.2375	-183.745	103.272	-30.4752	-187.9	120.874	-40.9319	-194.407	137.29	-57.3217	-200.919	99.9415	-48.8171	-194.408	93.4202	-76.4495	-186.248	61.7594	-68.4019	-217.344	86.9385	-50.4355	-207.713	81.9453	-76.3881	-197.05	57.3859	-71.4101	-229.378	71.7543	-34.3139	-239.541	88.1131	-41.0748	-247.852	108.34	-48.2726	-215.417	53.7428	-11.3909	-206.754	34.0281	3.01009	-187.133	50.1189	0.594569	
132	1.1	-164.23	38.703	-20.1348	-159.8	52.3116	-51.6008	-166.364	68.0069	-67.8479	-178.204	77.0619	-82.9975	-181.238	99.0848	-26.3987	-186.072	120.243	-37.282	-186.89	137.651	-50.7299	-197.259	99.8477	-45.0561	-194.694	92.7012	-72.4849	-186.788	60.2767	-65.2864	-211.309	90.9065	-45.0897	-206.419	83.6548	-71.5009	-194.77	60.0172	-68.581	-228.178	74.3016	-29.6964	-236.189	93.5236	-36.1108	-242.732	111.527	-43.3101	-211.524	56.5013	-9.32081	-206.921	29.8101	6.70588	-184.61	53.1781	2.54664	
133	1.10833	-162.102	35.96	-19.1663	-159.31	46.9359	-47.1256	-166.83	64.0792	-63.5654	-179.261	80.0155	-81.0476	-175.97	96.0831	-21.1788	-181.487	117.825	-32.3094	-182.45	138.723	-45.9458	-195.342	98.1502	-38.9737	-189.587	95.085	-67.4181	-189.108	62.606	-65.5453	-215.34	88.6423	-37.5247	-205.42	88.6139	-64.2967	-196.072	60.243	-65.52	-231.354	74.2265	-25.4224	-237.3	91.8332	-30.0755	-238.381	110.192	-35.1717	-211.152	52.8079	-1.50725	-208.866	30.2821	9.6561	-186.166	47.2483	6.38935	
134	1.11667	-164.332	29.8384	-17.0205	-163.561	48.0544	-45.3528	-167.825	63.799	-61.238	-178.437	76.5244	-76.5668	-174.295	93.8507	-17.9517	-172.788	119.806	-28.8499	-179.228	135.503	-40.1252	-190.142	97.6312	-35.2818	-190.584	96.7131	-63.8476	-183.667	62.329	-61.8365	-212.319	89.5891	-34.5623	-203.529	88.7802	-62.1776	-198.311	59.2561	-65.079	-230.777	78.1236	-20.9881	-231.956	96.2433	-26.2966	-235.137	113.641	-30.3707	-210.55	55.7836	-2.80929	-206.825	33.9988	11.6725	-182.934	47.725	8.47274	
135	1.125	-162.884	24.9301	-14.745	-159.862	41.1684	-44.0243	-165.7	61.1653	-60.9743	-174.31	75.1478	-77.5712	-170.935	95.0695	-17.7347	-173.594	116.761	-27.2412	-175.728	135.676	-38.5915	-187.902	95.2525	-33.1877	-185.622	95.175	-61.2154	-186.297	58.4346	-59.6082	-204.301	90.1119	-34.2196	-202.965	86.3117	-62.4079	-194.217	59.8979	-63.9782	-224.662	73.2239	-19.8796	-231.356	95.3372	-23.6799	-235.14	112.016	-25.7198	-206.683	52.8358	1.00018	-210.578	32.0639	10.9296	-181.533	43.7479	9.08717	
136	1.13333	-164.418	26.5139	-15.6773	-158.836	41.2394	-44.5981	-160.541	54.7119	-60.5558	-171.825	72.9473	-76.7523	-166.317	92.1349	-17.7657	-169.189	112.492	-26.1568	-170.491	130.804	-37.0536	-184.182	93.5297	-33.1468	-181.936	90.6465	-62.49	-178.5	57.5061	-59.9777	-204.103	85.9269	-32.8081	-199.504	86.7051	-58.3036	-193.661	56.0857	-63.79	-223.564	76.709	-18.6115	-229.913	91.6487	-22.668	-231.633	114.019	-25.5831	-203.241	48.4497	1.45225	-208.009	28.8985	12.5807	-181.374	41.5176	9.13425	
137	1.14167	-161.79	22.5497	-14.8302	-155.269	33.8329	-44.0148	-161.018	53.3199	-60.3062	-171.097	68.228	-75.4005	-161.523	84.2962	-17.3904	-158.717	108.731	-28.5487	-159.052	127.938	-40.037	-179.768	86.9626	-31.8957	-177.716	86.2042	-64.0449	-179.814	53.3827	-61.5532	-201.928	82.6821	-32.573	-198.261	81.9192	-60.4104	-188.713	52.145	-62.4723	-218.379	73.3755	-19.1513	-224.325	91.7184	-23.856	-225.379	107.697	-24.5632	-200.982	47.4822	2.18079	-204.396	24.8087	11.683	-175.337	38.6064	9.76252	
138	1.15	-159.116	15.4093	-15.1384	-154.329	28.9327	-44.2425	-156.244	49.9065	-64.4437	-167.228	62.2838	-78.4435	-156.232	82.9979	-20.0364	-156.466	105.615	-31.59	-152.913	125.127	-44.7303	-177.125	86.9757	-36.5771	-174.556	80.3342	-65.6905	-175.458	49.133	-62.8286	-195.122	79.8966	-33.559	-190.27	77.282	-61.7669	-189.732	49.5301	-64.052	-211.852	73.2978	-20.3115	-219.84	90.5755	-24.9041	-220.167	105.717	-26.6587	-199.225	50.2211	1.23592	-200.387	21.6671	12.8966	-171.196	37.0959	8.06107	
139	1.15833	-153.555	14.7108	-17.9821	-150.715	27.7721	-47.9171	-156.819	45.0881	-64.5198	-166.719	56.4161	-76.6894	-149.349	80.2764	-23.5572	-147.752	102.211	-36.1076	-149.16	117.793	-47.2973	-174.801	85.2624	-40.6928	-172.282	80.2061	-67.0074	-171.674	46.9701	-65.4545	-191.802	78.4192	-39.5143	-188.604	70.4983	-66.5552	-183.069	43.6382	-62.7385	-210.269	66.6189	-21.7257	-215.659	85.8702	-27.0821	-218.751	106.741	-33.2744	-194.47	43.6359	0.0116815	-197.999	26.4932	11.4882	-171.734	32.7031	7.20527	
140	1.16667	-153.37	14.1772	-18.1693	-148.508	23.3434	-48.784	-153.003	41.1771	-67.1858	-166.167	56.6828	-82.3636	-149.786	78.8308	-27.1067	-146.594	100.998	-39.5321	-145.675	116.812	-51.6212	-168.57	80.1442	-40.8574	-170.198	76.7825	-70.4142	-169.468	42.9492	-64.6706	-186.729	77.2079	-41.5681	-182.459	67.603	-69.5807	-179.231	41.6106	-64.1924	-207.762	68.911	-25.1371	-211.57	86.4245	-30.8331	-210.19	103.668	-36.103	-191.86	44.6723	-3.07222	-195.346	21.207	10.8109	-165.04	34.995	6.11808	
141	1.175	-150.953	12.4983	-19.4205	-149.316	24.0882	-49.2631	-148.955	38.6846	-69.6779	-162.596	51.9326	-81.6992	-145.104	75.8121	-28.4545	-143.092	96.1747	-40.0677	-138.54	116.888	-56.411	-168.434	80.7413	-42.6893	-164.229	72.5819	-74.4604	-166.867	43.0114	-68.3745	-188.052	78.7761	-46.4882	-184.305	69.2642	-70.6255	-181.955	43.1461	-68.9654	-208.137	72.3979	-26.7887	-209.99	85.2789	-32.1881	-210.369	108.438	-38.2427	-190.235	49.0928	-6.81478	-195.087	27.6187	8.61825	-167.852	34.0626	2.81099	
142	1.18333	-150.238	11.2642	-19.8504	-148.91	24.467	-50.7113	-151.424	39.6781	-70.845	-165.316	53.3601	-83.534	-146.053	77.361	-29.32	-145.558	98.7471	-43.1357	-142.236	114.649	-57.482	-165.182	81.8267	-47.0333	-167.575	75.87	-75.1891	-170.578	42.6157	-66.6923	-185.01	77.5426	-45.7299	-184.303	70.0808	-72.5317	-176.406	40.7563	-67.3112	-209.214	72.7328	-28.7528	-207.916	87.65	-34.7802	-213.847	106.167	-39.4077	-189.647	48.6543	-6.74182	-196.832	29.879	7.77403	-168.997	35.4045	3.20048	
143	1.19167	-152.188	16.9136	-20.1017	-152.346	27.8682	-50.8587	-154.025	41.2165	-70.9499	-167.782	54.9595	-84.9449	-148.624	80.4196	-32.7727	-147.09	100.06	-45.0216	-143.486	117.074	-60.9922	-171.421	85.535	-50.1691	-170.876	75.3848	-77.4809	-168.449	44.1411	-68.618	-189.247	79.0879	-47.538	-186.077	68.6336	-76.1298	-180.998	44.848	-72.7353	-210.865	69.5906	-30.3301	-211.254	89.3476	-36.7326	-217.307	110.32	-43.7441	-190.174	53.2839	-7.39623	-199.164	31.2571	6.4848	-171.53	38.3415	0.671044	
